<?xml version="1.0" encoding="UTF-8" standalone="no"?>
<svg height="903" width="450" xmlns="http://www.w3.org/2000/svg">
   <path
      style="fill:none;stroke:#000000;stroke-width:10"
      d="M   100   50 A   50   50   0   0   0   50   100 L   50   150 A   50   50   0   0   0   100   200 L   250   200 A   100   100   0   0   1   350   300 L   350   350 A   100   100   0   0   1   250   450 L   250   900 L   200   900 L   200   400 L   250   400 A   50   50   0   0   0   300   350 L   300   300 A   50   50   0   0   0   250   250 L   100   250 A   100   100   0   0   1   0   150 L   0   100 A   100   100   0   0   1   100   0 Z"
      id="s-logo" />
</svg>


