<?xml version="1.0" encoding="UTF-8" standalone="no"?>
<svg height="910" width="360" xmlns="http://www.w3.org/2000/svg">
   <path
      style="fill:none;stroke:#FFFFFF;stroke-width:10"
      d="M   105   55 A   50   50   0   0   0   55   105 L   55   155 A   50   50   0   0   0   105   205 L   255   205 A   100   100   0   0   1   355   305 L   355   355 A   100   100   0   0   1   255   455 L   255   905 L   205   905 L   205   405 L   255   405 A   50   50   0   0   0   305   355 L   305   305 A   50   50   0   0   0   255   255 L   105   255 A   100   100   0   0   1   5   155 L   5   105 A   100   100   0   0   1   105   5 Z"
      id="s-logo" />
</svg>
